<svg xmlns="http://www.w3.org/2000/svg" width="82" height="82" viewBox="0 0 82 82">
  <g id="Groupe_133" data-name="Groupe 133" transform="translate(-161 -3422)">
    <g id="Groupe_132" data-name="Groupe 132" transform="translate(180.941 3437.942)">
      <path id="Tracé_109" data-name="Tracé 109" d="M33.9,27.543,15.143,36.919a7.5,7.5,0,0,1,.76,1.526L34.66,29.065A7.741,7.741,0,0,1,33.9,27.543ZM15.9,11.36a7.416,7.416,0,0,1-.76,1.526L33.9,22.265a7.594,7.594,0,0,1,.763-1.526Zm25.178,5.88A7.662,7.662,0,1,0,48.744,24.9,7.676,7.676,0,0,0,41.081,17.241Zm0,1.7A5.959,5.959,0,1,1,35.124,24.9,5.948,5.948,0,0,1,41.081,18.943ZM8.719,33.42a7.663,7.663,0,1,0,7.663,7.663A7.673,7.673,0,0,0,8.719,33.42Zm0,1.7a5.959,5.959,0,1,1-5.957,5.961A5.948,5.948,0,0,1,8.719,35.123Zm0-34.065a7.663,7.663,0,1,0,7.663,7.663A7.673,7.673,0,0,0,8.719,1.058Zm0,1.706A5.959,5.959,0,1,1,2.762,8.721,5.945,5.945,0,0,1,8.719,2.764Z" transform="translate(0 0)" fill="#fff"/>
    </g>
    <g id="Ellipse_2" data-name="Ellipse 2" transform="translate(161 3422)" fill="none" stroke="#fff" stroke-width="2">
      <circle cx="41" cy="41" r="41" stroke="none"/>
      <circle cx="41" cy="41" r="40" fill="none"/>
    </g>
  </g>
</svg>
