<svg xmlns="http://www.w3.org/2000/svg" width="82" height="82" viewBox="0 0 82 82">
  <g id="Groupe_32" data-name="Groupe 32" transform="translate(-1909 -595)">
    <g id="Ellipse_1" data-name="Ellipse 1" transform="translate(1909 595)" fill="#fff" stroke="#000" stroke-width="7">
      <circle cx="41" cy="41" r="41" stroke="none"/>
      <circle cx="41" cy="41" r="37.5" fill="none"/>
    </g>
    <path id="Tracé_83" data-name="Tracé 83" d="M14.572,34.61a7.043,7.043,0,0,0,4.9-1.984L33.49,39.633a7.164,7.164,0,0,0-.059.871A7.085,7.085,0,1,0,35.6,35.416L21.585,28.409a6.463,6.463,0,0,0,0-1.742L35.6,19.661a7.067,7.067,0,1,0-2.167-5.088,7.178,7.178,0,0,0,.059.871L19.477,22.45a7.07,7.07,0,1,0-4.9,12.16Z" transform="translate(1922.288 608.118)"/>
  </g>
</svg>
