<svg xmlns="http://www.w3.org/2000/svg" width="62.145" height="70" viewBox="0 0 62.145 70">
  <g id="noun_delivery_1796148" transform="translate(-7.153 -3.002)">
    <path class="menu-svg" data-name="Tracé 4" d="M7.153,23.338V52.664a5.692,5.692,0,0,0,2.838,4.915l25.4,14.663a5.683,5.683,0,0,0,2.76.753c.026,0,.05.008.077.008s.05-.007.077-.008a5.679,5.679,0,0,0,2.761-.753l25.4-14.664A5.691,5.691,0,0,0,69.3,52.664V23.338a5.688,5.688,0,0,0-2.838-4.915L41.064,3.762a5.686,5.686,0,0,0-5.677,0L9.992,18.423A5.689,5.689,0,0,0,7.153,23.338ZM65.514,52.664a1.9,1.9,0,0,1-.946,1.637L40.117,68.419V39.094l25.4-14.662ZM37.28,7.038a1.893,1.893,0,0,1,1.891,0L63.622,21.155,52.753,27.43l-25.4-14.663ZM23.573,14.952l25.4,14.663-10.743,6.2L12.83,21.153Zm-12.636,9.48,25.4,14.663V68.418L11.884,54.3a1.9,1.9,0,0,1-.947-1.638Z" fill="#000"/>
    <path class="menu-svg" data-name="Tracé 5" d="M49.845,53.161a3.009,3.009,0,0,0,3,0l9.311-5.376a3.009,3.009,0,0,0,1.5-2.6V39.436a3,3,0,0,0-4.5-2.6L49.845,42.21a3.009,3.009,0,0,0-1.5,2.6v5.754A3.006,3.006,0,0,0,49.845,53.161Zm2.5-7.774,7.311-4.219V44.61l-7.311,4.221Z" transform="translate(-3.549 -2.35)" fill="#000"/>
  </g>
</svg>
