<svg xmlns="http://www.w3.org/2000/svg" width="72.406" height="73.057" viewBox="0 0 72.406 73.057">
  <g id="noun_Gears_796230" transform="translate(-0.15 -0.126)">
    <path id="Tracé_3" data-name="Tracé 3" d="M38.749,66.073l2.007-2.027a2.618,2.618,0,0,0,.287-3.33l-1.95-2.809A17.6,17.6,0,0,0,40.821,53.7l3.341-.594a2.591,2.591,0,0,0,2.151-2.555v-2.9A2.591,2.591,0,0,0,44.162,45.1l-3.341-.594A17.6,17.6,0,0,0,39.093,40.3l1.95-2.773a2.618,2.618,0,0,0-.287-3.33l-2.007-2.027a2.555,2.555,0,0,0-3.3-.29L32.67,33.852A17.221,17.221,0,0,0,28.5,32.107l-.588-3.373a2.581,2.581,0,0,0-2.531-2.172H22.519a2.581,2.581,0,0,0-2.531,2.172L19.4,32.107a17.235,17.235,0,0,0-4.165,1.745l-2.746-1.969a2.555,2.555,0,0,0-3.3.29L7.184,34.2a2.618,2.618,0,0,0-.265,3.33l1.95,2.809a17.578,17.578,0,0,0-1.728,4.206L3.8,45.137A2.591,2.591,0,0,0,1.65,47.693v2.9A2.591,2.591,0,0,0,3.8,53.144l3.341.594a17.57,17.57,0,0,0,1.728,4.206l-1.95,2.773a2.618,2.618,0,0,0,.287,3.33l2.007,2.027a2.555,2.555,0,0,0,3.3.29l2.782-1.969a17.256,17.256,0,0,0,4.165,1.745l.588,3.373a2.581,2.581,0,0,0,2.531,2.172h2.868a2.581,2.581,0,0,0,2.531-2.172l.588-3.373a17.228,17.228,0,0,0,4.165-1.745l2.724,1.947a2.555,2.555,0,0,0,3.3-.268ZM23.967,56.85a7.732,7.732,0,1,1,7.656-7.724,7.694,7.694,0,0,1-7.656,7.724ZM70.149,14.016a2.575,2.575,0,0,0-2.71-1.911l-3.04.268A14.409,14.409,0,0,0,60.371,8.3l.265-3.069a2.6,2.6,0,0,0-1.9-2.744L56,1.768a2.566,2.566,0,0,0-3,1.448l-1.29,2.751a14.051,14.051,0,0,0-5.5,1.484l-2.5-1.774a2.555,2.555,0,0,0-3.3.29L38.405,7.993a2.618,2.618,0,0,0-.287,3.33L39.9,13.85a14.407,14.407,0,0,0-1.47,5.552l-2.8,1.332A2.606,2.606,0,0,0,34.2,23.76l.717,2.765a2.575,2.575,0,0,0,2.71,1.918l3.04-.268a14.409,14.409,0,0,0,4.029,4.068l-.265,3.069a2.6,2.6,0,0,0,1.921,2.707l2.739.724a2.566,2.566,0,0,0,3-1.448l1.29-2.8A14.05,14.05,0,0,0,58.9,33.041l2.5,1.8a2.555,2.555,0,0,0,3.3-.29l2.007-2.027a2.618,2.618,0,0,0,.287-3.33l-1.756-2.526a14.407,14.407,0,0,0,1.47-5.552l2.774-1.3a2.606,2.606,0,0,0,1.434-3.026ZM56.385,24.086a5.326,5.326,0,0,1-7.571-.025,5.452,5.452,0,0,1,0-7.645,5.326,5.326,0,0,1,7.571-.025,5.452,5.452,0,0,1,0,7.7Z" fill="none" stroke="#000" stroke-width="3"/>
  </g>
</svg>
