<svg xmlns="http://www.w3.org/2000/svg" width="75.385" height="70" viewBox="0 0 75.385 70">
  <g id="noun_Map_1428232" transform="translate(-7.339 -2)">
    <g id="Groupe_44" data-name="Groupe 44" transform="translate(7.339 2)">
      <path id="menu-svg" data-name="Tracé 6" d="M77.317,53.789a2.954,2.954,0,0,0,.067-.349V6.747c0-.03-.016-.055-.016-.082a2.725,2.725,0,0,0-.108-.538,2.563,2.563,0,0,0-.14-.522.733.733,0,0,0-.022-.082,2.642,2.642,0,0,0-.237-.308,2.63,2.63,0,0,0-.358-.467,2.688,2.688,0,0,0-.417-.286,2.489,2.489,0,0,0-.452-.261,2.6,2.6,0,0,0-.56-.115A1.8,1.8,0,0,0,74.692,4c-.03,0-.054.016-.081.016a2.511,2.511,0,0,0-.525.107,2.638,2.638,0,0,0-.514.143c-.027.014-.057.008-.081.022L68.107,7.035a2.774,2.774,0,0,0-1.2,3.686,2.66,2.66,0,0,0,3.608,1.231L72,11.191V51.825L50.462,64.031,28.923,51.825V50.694a2.693,2.693,0,1,0-5.385,0v1.225L7.385,62.219V22L26.376,9.892l4.036,2.057a2.624,2.624,0,0,0,1.2.291,2.689,2.689,0,0,0,2.412-1.519,2.774,2.774,0,0,0-1.2-3.686L27.437,4.288a2.336,2.336,0,0,0-.3-.082,2.6,2.6,0,0,0-.514-.143,2.645,2.645,0,0,0-.53-.019,2.577,2.577,0,0,0-.477.063,2.7,2.7,0,0,0-.536.2,2.522,2.522,0,0,0-.272.1L3.268,18.148a2.535,2.535,0,0,0-.213.206,2.578,2.578,0,0,0-.4.387,2.5,2.5,0,0,0-.283.428,2.6,2.6,0,0,0-.2.47,2.72,2.72,0,0,0-.11.549c-.008.1-.057.187-.057.291V67.174c0,.071.035.135.04.206a2.648,2.648,0,0,0,.108.538,2.852,2.852,0,0,0,.188.514c.032.063.035.137.073.2a2.744,2.744,0,0,0,.323.4c.03.036.054.071.083.1a2.58,2.58,0,0,0,.751.516,1.619,1.619,0,0,0,.191.074,2.668,2.668,0,0,0,.932.2h0a2.64,2.64,0,0,0,.921-.19c.089-.036.17-.071.256-.115s.167-.06.248-.113L26.309,56.626,49.115,69.549a0,0,0,0,0,0,0l.038.022a2.653,2.653,0,0,0,.39.159,2.471,2.471,0,0,0,.234.1,2.692,2.692,0,0,0,.678.091h.005a2.729,2.729,0,0,0,.681-.091,2.47,2.47,0,0,0,.234-.1,2.382,2.382,0,0,0,.39-.159l.038-.022a0,0,0,0,0,0,0L76,55.841a2.919,2.919,0,0,0,.261-.225,2.739,2.739,0,0,0,.433-.379,2.934,2.934,0,0,0,.28-.423,2.6,2.6,0,0,0,.234-.467A3.186,3.186,0,0,0,77.317,53.789Z" transform="translate(-2 0.08)" fill="#000"/>
      <path id="menu-svg" data-name="Tracé 7" d="M14.08,10.04a2.04,2.04,0,1,0-4.08,0v2.04a2.04,2.04,0,0,0,4.08,0Z" transform="translate(11.94 8.664)" fill="#000"/>
      <path id="menu-svg" data-name="Tracé 8" d="M14.08,14.04a2.04,2.04,0,1,0-4.08,0v2.04a2.04,2.04,0,1,0,4.08,0Z" transform="translate(11.94 15.774)" fill="#000"/>
      <path id="menu-svg" data-name="Tracé 9" d="M12.04,16A2.041,2.041,0,0,0,10,18.04v2.04a2.04,2.04,0,0,0,4.08,0V18.04A2.041,2.041,0,0,0,12.04,16Z" transform="translate(11.94 22.884)" fill="#000"/>
      <path id="menu-svg" data-name="Tracé 10" d="M23.08,19.04a2.04,2.04,0,0,0-4.08,0v2.04a2.04,2.04,0,1,0,4.08,0Z" transform="translate(27.622 24.661)" fill="#000"/>
      <path id="menu-svg" data-name="Tracé 11" d="M21.04,21A2.038,2.038,0,0,0,19,23.04v2.04a2.04,2.04,0,1,0,4.08,0V23.04A2.038,2.038,0,0,0,21.04,21Z" transform="translate(27.622 31.771)" fill="#000"/>
      <path id="menu-svg" data-name="Tracé 12" d="M25.2,30.558a2.031,2.031,0,0,0,1.442-.6C28.81,27.794,35.4,21.2,35.4,12.2A9.865,9.865,0,0,0,25.2,2,9.865,9.865,0,0,0,15,12.2c0,9,6.589,15.595,8.757,17.761A2.031,2.031,0,0,0,25.2,30.558Zm0-24.478a5.794,5.794,0,0,1,6.12,6.12c0,5.9-3.7,10.748-6.12,13.382-2.415-2.633-6.12-7.48-6.12-13.382A5.735,5.735,0,0,1,25.2,6.08Z" transform="translate(24.712 -2)" fill="#000"/>
      <circle id="menu-svg" data-name="Ellipse 1" cx="4.08" cy="4.08" r="4.08" transform="translate(44.817 6.12)" fill="#000"/>
    </g>
  </g>
</svg>
