<svg xmlns="http://www.w3.org/2000/svg" width="17.938" height="22.215" viewBox="0 0 17.938 22.215">
  <defs>
    <style>
      .cls-1 {
        fill: #fff;
      }
    </style>
  </defs>
  <path id="Tracé_1" data-name="Tracé 1" class="cls-1" d="M27.334,9.815a4.246,4.246,0,0,0-7.23-2.99,4.1,4.1,0,0,0-1.226,2.99V12.43a4.228,4.228,0,0,0,7.218,2.99,4.051,4.051,0,0,0,1.238-2.99V9.815m-6.342-2.1a2.9,2.9,0,0,1,2.114-.863,2.968,2.968,0,0,1,2.977,2.965V12.43a2.99,2.99,0,0,1-2.977,2.977,2.968,2.968,0,0,1-2.977-2.977V9.815a2.885,2.885,0,0,1,.863-2.1M31.9,27.628a.575.575,0,0,0,.188-.438V25.814A6.976,6.976,0,0,0,29.436,20.3a9.419,9.419,0,0,0-6.317-2.214A9.5,9.5,0,0,0,16.8,20.3a6.972,6.972,0,0,0-2.652,5.516V27.19a.6.6,0,0,0,.175.438.615.615,0,0,0,.45.188H31.462a.575.575,0,0,0,.438-.188M15.4,26.565v-.751a5.824,5.824,0,0,1,2.214-4.566,8.221,8.221,0,0,1,5.5-1.914,8.238,8.238,0,0,1,5.5,1.914,5.82,5.82,0,0,1,2.214,4.566v.751Z" transform="translate(-14.15 -5.6)"/>
</svg>
