<svg xmlns="http://www.w3.org/2000/svg" xmlns:xlink="http://www.w3.org/1999/xlink" width="164" height="164" viewBox="0 0 164 164">
  <defs>
    <filter id="bg" x="0" y="0" width="164" height="164" filterUnits="userSpaceOnUse">
      <feOffset input="SourceAlpha"/>
      <feGaussianBlur stdDeviation="19" result="blur"/>
      <feFlood flood-color="#96b0cb" flood-opacity="0.31"/>
      <feComposite operator="in" in2="blur"/>
      <feComposite in="SourceGraphic"/>
    </filter>
  </defs>
  <g id="button_next_active_" data-name="button next ( active)" transform="translate(967 516) rotate(180)">
    <g transform="matrix(-1, 0, 0, -1, 967, 516)" filter="url(#bg)">
      <circle id="bg-2" data-name="bg" cx="25" cy="25" r="25" transform="translate(107 107) rotate(180)" fill="#fff"/>
    </g>
    <path id="arrow" d="M885.218,437.73a.84.84,0,0,1,0-1.218l1.722-1.654H880.9a.863.863,0,1,1,0-1.724h6.046l-1.724-1.653a.844.844,0,0,1-.263-.611.83.83,0,0,1,.263-.6.919.919,0,0,1,1.268,0l3.254,3.122a.836.836,0,0,1,.263.608v0a.831.831,0,0,1-.171.5.945.945,0,0,1-.092.105l-3.254,3.123a.928.928,0,0,1-1.268,0Z"/>
  </g>
</svg>
