<svg xmlns="http://www.w3.org/2000/svg" width="45.012" height="45.014" viewBox="0 0 45.012 45.014">
  <path id="Tracé_7" data-name="Tracé 7" d="M863.743,446.108a22.507,22.507,0,1,0,22.417,22.6A22.556,22.556,0,0,0,863.743,446.108Zm4.991,13.374a6.5,6.5,0,0,0-.862-.007c-2.434.092-3.4,1.413-2.9,4.109.682.048,1.39.106,2.1.148s1.42.066,2.294.105c0,1.672.03,3.24-.037,4.8-.008.194-.519.508-.811.524-1.1.062-2.214.025-3.439.025v14.229h-6.407V469.295h-3.315c.091-1.668.152-3.273.3-4.869.018-.2.46-.486.735-.524.74-.1,1.494-.093,2.381-.135.08-1.151.182-2.249.228-3.349.139-3.346,1.409-4.959,4.713-5.538,1.847-.325,3.751-.326,5.832-.489,0,1.651-.022,2.97.009,4.288C869.569,459.289,869.342,459.54,868.734,459.482Z" transform="translate(-841.148 -446.108)"/>
</svg>
