<svg xmlns="http://www.w3.org/2000/svg" width="45.013" height="45.014" viewBox="0 0 45.013 45.014">
  <g id="Groupe_8" data-name="Groupe 8" transform="translate(0 0)">
    <path id="Tracé_3" data-name="Tracé 3" d="M909.107,446.108a22.507,22.507,0,1,0,22.484,22.53A22.556,22.556,0,0,0,909.107,446.108ZM920.1,476.075c-.066,2.917-1.758,4.41-4.929,4.509-2.3.073-4.6.015-6.893.015v.01c-2.154,0-4.308.026-6.461-.015a8.969,8.969,0,0,1-2.227-.324,3.809,3.809,0,0,1-3.1-3.894c-.061-4.6-.095-9.2,0-13.794.07-3.246,2.461-5.557,6-5.7,3.871-.156,7.758-.165,11.628,0,3.7.161,5.9,2.452,6,6.149C920.225,467.38,920.2,471.731,920.1,476.075Z" transform="translate(-886.578 -446.108)"/>
    <path id="Tracé_4" data-name="Tracé 4" d="M906.8,472.023a6.257,6.257,0,0,1-4.488-1.5,7.187,7.187,0,0,1-2.334-6.668h-2.568c0,3.334-.014,6.562.009,9.789.007.915.625,1.2,1.454,1.207,1.832.012,3.663.037,5.494.061,2.873.037,5.746.108,8.619.106,2.031,0,2.716-.73,2.732-2.743.012-1.544.009-3.089.012-4.632,0-1.245,0-2.489,0-3.768h-2.56C913.085,468.995,910.852,471.847,906.8,472.023Z" transform="translate(-884.913 -443.379)"/>
    <path id="Tracé_5" data-name="Tracé 5" d="M905.323,469.891a4.074,4.074,0,0,0,3.88-3.976,3.445,3.445,0,1,0-6.871-.093C902.278,468.061,903.561,469.808,905.323,469.891Z" transform="translate(-884.155 -443.637)"/>
    <path id="Tracé_6" data-name="Tracé 6" d="M910.085,461.163H913.3v-2.806c-3.154-.452-3.551-.134-3.324,2.636C909.98,461.053,910.048,461.107,910.085,461.163Z" transform="translate(-882.988 -444.25)"/>
  </g>
</svg>
