<svg xmlns="http://www.w3.org/2000/svg" width="87.652" height="14.283" viewBox="0 0 87.652 14.283">
  <g id="Groupe_16" data-name="Groupe 16" transform="translate(-1185 -395)">
    <g id="Groupe_11" data-name="Groupe 11" transform="translate(1185 395)">
      <path id="Tracé_9" data-name="Tracé 9" d="M19.885,11.545a.885.885,0,0,0-.752-.611l-4.146-.451-1.708-3.8a.89.89,0,0,0-1.625,0l-1.708,3.8L5.8,10.934a.893.893,0,0,0-.5,1.548l3.088,2.8-.851,4.08a.893.893,0,0,0,1.316.956l3.618-2.073,3.618,2.073a.893.893,0,0,0,1.316-.956l-.851-4.08,3.088-2.8A.885.885,0,0,0,19.885,11.545Z" transform="translate(-5.003 -6.152)" fill="red"/>
    </g>
    <g id="Groupe_12" data-name="Groupe 12" transform="translate(1203.181 395)">
      <path id="Tracé_9-2" data-name="Tracé 9" d="M19.885,11.545a.885.885,0,0,0-.752-.611l-4.146-.451-1.708-3.8a.89.89,0,0,0-1.625,0l-1.708,3.8L5.8,10.934a.893.893,0,0,0-.5,1.548l3.088,2.8-.851,4.08a.893.893,0,0,0,1.316.956l3.618-2.073,3.618,2.073a.893.893,0,0,0,1.316-.956l-.851-4.08,3.088-2.8A.885.885,0,0,0,19.885,11.545Z" transform="translate(-5.003 -6.152)" fill="red"/>
    </g>
    <g id="Groupe_13" data-name="Groupe 13" transform="translate(1221.363 395)">
      <path id="Tracé_9-3" data-name="Tracé 9" d="M19.885,11.545a.885.885,0,0,0-.752-.611l-4.146-.451-1.708-3.8a.89.89,0,0,0-1.625,0l-1.708,3.8L5.8,10.934a.893.893,0,0,0-.5,1.548l3.088,2.8-.851,4.08a.893.893,0,0,0,1.316.956l3.618-2.073,3.618,2.073a.893.893,0,0,0,1.316-.956l-.851-4.08,3.088-2.8A.885.885,0,0,0,19.885,11.545Z" transform="translate(-5.003 -6.152)" fill="red"/>
    </g>
    <g id="Groupe_14" data-name="Groupe 14" transform="translate(1239.544 395)">
      <path id="Tracé_9-4" data-name="Tracé 9" d="M19.885,11.545a.885.885,0,0,0-.752-.611l-4.146-.451-1.708-3.8a.89.89,0,0,0-1.625,0l-1.708,3.8L5.8,10.934a.893.893,0,0,0-.5,1.548l3.088,2.8-.851,4.08a.893.893,0,0,0,1.316.956l3.618-2.073,3.618,2.073a.893.893,0,0,0,1.316-.956l-.851-4.08,3.088-2.8A.885.885,0,0,0,19.885,11.545Z" transform="translate(-5.003 -6.152)" fill="#a09c9c"/>
    </g>
    <g id="Groupe_15" data-name="Groupe 15" transform="translate(1257.725 395)">
      <path id="Tracé_9-5" data-name="Tracé 9" d="M19.885,11.545a.885.885,0,0,0-.752-.611l-4.146-.451-1.708-3.8a.89.89,0,0,0-1.625,0l-1.708,3.8L5.8,10.934a.893.893,0,0,0-.5,1.548l3.088,2.8-.851,4.08a.893.893,0,0,0,1.316.956l3.618-2.073,3.618,2.073a.893.893,0,0,0,1.316-.956l-.851-4.08,3.088-2.8A.885.885,0,0,0,19.885,11.545Z" transform="translate(-5.003 -6.152)" fill="#a09c9c"/>
    </g>
  </g>
</svg>
