<svg xmlns="http://www.w3.org/2000/svg" width="96.963" height="58.068" viewBox="0 0 96.963 58.068">
  <g id="Groupe_128" data-name="Groupe 128" transform="translate(0 0)">
    <path id="Tracé_87" data-name="Tracé 87" d="M-300.408,421.6a29.179,29.179,0,0,1-40.784-1.92,29.059,29.059,0,0,1-.228-39.1,29.111,29.111,0,0,1,41.074-2.212,28.722,28.722,0,0,1,23.814-7.087,28.221,28.221,0,0,1,18.213,10.448,29.2,29.2,0,0,1-1.071,37.792A29.271,29.271,0,0,1-300.408,421.6Zm-35.231-24.244.217.006-1.574,10c.847,0,1.6-.038,2.345.012.649.043.858-.222.956-.84.537-3.411,1.125-6.815,1.683-10.223.194-1.182.351-2.369.54-3.655h-2.667c-2.158,0-2.15,0-2.835,2.035-.715,2.124-1.449,4.241-2.174,6.361l-.317-.039v-8.268h-4.564l-2.435,14.54h2.953l1.721-10.035.379.02v10c2.14.2,2.139.2,2.752-1.513Q-337.149,401.564-335.638,397.361Zm78.167,9.955,2.348-14.6h-3.052c-.228,1.29-.454,2.575-.7,3.982-.286-.242-.469-.4-.659-.556a3.561,3.561,0,0,0-4.744-.049c-2.547,1.93-3.571,6.754-2.026,9.547a3.486,3.486,0,0,0,4.993,1.379c.276-.159.538-.341.869-.553l.086.845Zm-16.17,0c.409-2.913.886-5.714,1.171-8.535a3.183,3.183,0,0,0-3.011-3.549,11.9,11.9,0,0,0-2.153-.022c-2.732.192-2.832.3-3.147,2.946,0,.026.031.057.026.047,1.336-.086,2.653-.261,3.964-.231,1.185.027,1.437.519,1.108,1.749-.341,0-.7.006-1.05,0a6.367,6.367,0,0,0-4,1.027,4.439,4.439,0,0,0-1.424,5.046,2.75,2.75,0,0,0,3.233,1.734,10.051,10.051,0,0,0,2.235-.957c.093-.041.188-.077.315-.129l.1.875Zm-50.1.008c.392-2.841.838-5.611,1.137-8.4a3.127,3.127,0,0,0-2.848-3.665,12.6,12.6,0,0,0-3.324.088c-1.875.3-2.257.966-1.995,2.863,1.259-.1,2.512-.28,3.762-.261s1.506.481,1.222,1.77a5.149,5.149,0,0,0-1.067.011,15.121,15.121,0,0,0-3.8.954c-1.874.978-2.448,4.054-1.294,5.707,1.041,1.492,3.22,1.6,5.111.249.03-.021.051-.057.082-.069.095-.034.192-.059.315-.1l.107.846Zm24.4-4.931c.118-1.038.289-1.926.307-2.816a4.018,4.018,0,0,0-2.587-4.191,4.686,4.686,0,0,0-5.206,1.33,8.2,8.2,0,0,0-1.819,6.969,4.2,4.2,0,0,0,3.758,3.761,19.211,19.211,0,0,0,4.073-.154.935.935,0,0,0,.643-.568c.211-.782.317-1.593.433-2.234a30.831,30.831,0,0,1-4.2.221,2.529,2.529,0,0,1-1.6-1.2c-.506-.842-.258-1.11.765-1.115C-303.007,402.385-301.245,402.391-299.339,402.391Zm16.052,1.53c-.565.2-1,.367-1.448.5-2.158.627-3.98-.448-4.071-2.68a10.25,10.25,0,0,1,.777-4.16,3.374,3.374,0,0,1,4.3-1.928c.548.141,1.072.375,1.676.592l.465-3.058c-3.683-1.809-7.612-.612-9.276,3a12.7,12.7,0,0,0-1.171,4.864c-.1,4.323,2,7.113,6.837,6.473.936-.124,1.636-.377,1.6-1.546A11.785,11.785,0,0,1-283.286,403.921Zm-39.862,3.469a43.714,43.714,0,0,0,5.08-.041,3.188,3.188,0,0,0,3.041-3.105,3.431,3.431,0,0,0-2.189-4c-.226-.11-.529-.156-.667-.332-.28-.356-.663-.8-.633-1.173.02-.264.634-.638,1.017-.685a22.26,22.26,0,0,1,2.648-.033l.382-2.682a29.61,29.61,0,0,0-4.487.045,3.242,3.242,0,0,0-2.878,3.164,3.348,3.348,0,0,0,2.1,3.839,2.5,2.5,0,0,1,.744.423,13.541,13.541,0,0,1,.891,1.292c-.453.28-.9.776-1.363.8a24.339,24.339,0,0,1-3.221-.265Zm13.713-2.633a2.2,2.2,0,0,0-.4-.084c-1.377-.008-1.563-.207-1.371-1.575.16-1.139.422-2.268.509-3.412.084-1.1.51-1.631,1.651-1.437.055.009.122-.061.248-.13l.354-2.619-1.469-.127.208-1.755c-.772,0-1.453.045-2.125-.012-.748-.064-1,.278-1.1.964-.235,1.563-.557,3.113-.8,4.675-.285,1.811-.559,3.625-.77,5.446-.115,1,.006,2.2,1.03,2.5a11.329,11.329,0,0,0,3.447.052c.113,0,.278-.316.313-.505C-309.6,406.107-309.531,405.464-309.435,404.756Zm17.1-14.1a23.616,23.616,0,0,0-.984-2.394,1.3,1.3,0,0,0-.937-.607c-3.967-.041-7.934-.034-11.9-.012a1.069,1.069,0,0,0-.807.344c-.479.831-.867,1.713-1.334,2.669Zm-4.8,4.821c-.636,3.935-1.269,7.855-1.91,11.821h3.109c.408-2.191.773-4.313,1.21-6.419.232-1.12.647-2.161,1.991-2.144l1.05-3.386c-1.33-.246-1.952.738-2.76,1.459l.11-1.33Zm30.336,3.312,1.07-3.464c-1.316-.2-1.952.754-2.8,1.515l.174-1.325H-271.2c-.636,3.954-1.262,7.849-1.894,11.773H-270c.434-2.279.806-4.476,1.286-6.649C-268.49,399.635-268.064,398.675-266.8,398.786Zm-40.408,13.5c.552,1,.965,1.827,1.469,2.6a1.171,1.171,0,0,0,.843.449c3.02.032,6.041.026,9.062.009.256,0,.636-.081.745-.257.538-.867,1-1.778,1.564-2.8Zm12-27.741c-.814-1.088-1.348-2.559-2.164-2.736a28.727,28.727,0,0,0-5.73-.177l-1.966,2.912Zm-8.142,33.864,2.985,3.16,2.982-3.16Z" transform="translate(348.863 -370.945)" fill="#fff"/>
    <path id="Tracé_88" data-name="Tracé 88" d="M-186.2,448.079c-.623.429-1,.894-1.363.878-.316-.013-.61-.564-.914-.877.333-.315.631-.814,1.01-.885C-187.188,447.141-186.8,447.638-186.2,448.079Z" transform="translate(281.612 -402.916)" fill="#fff"/>
    <path id="Tracé_89" data-name="Tracé 89" d="M-197.878,420.5a16.328,16.328,0,0,1-1.3,2.982,2.074,2.074,0,0,1-1.757.654,1.867,1.867,0,0,1-1.14-1.33,8.26,8.26,0,0,1,.226-3.057,2.088,2.088,0,0,1,2.427-1.8C-198.542,418.129-198.135,418.9-197.878,420.5Z" transform="translate(287.332 -390.637)" fill="#fff"/>
    <path id="Tracé_90" data-name="Tracé 90" d="M-225.671,424.6a12.493,12.493,0,0,1-1.293,2.32,1.389,1.389,0,0,1-2.095-.084,1.483,1.483,0,0,1,.649-2.111,13.706,13.706,0,0,1,2.341-.551Z" transform="translate(298.717 -393.264)" fill="#fff"/>
    <path id="Tracé_91" data-name="Tracé 91" d="M-312.189,424.046a3.178,3.178,0,0,1-1.147,2.927,1.415,1.415,0,0,1-2.019-.231,1.372,1.372,0,0,1,.513-1.973A14.5,14.5,0,0,1-312.189,424.046Z" transform="translate(334.899 -393.211)" fill="#fff"/>
    <path id="Tracé_92" data-name="Tracé 92" d="M-273.837,419.319c.185-1.355.964-2.134,2.036-2.064.9.058,1.325.706,1.312,2.064Z" transform="translate(317.404 -390.362)" fill="#fff"/>
  </g>
</svg>
