<svg xmlns="http://www.w3.org/2000/svg" width="87.198" height="76.164" viewBox="0 0 87.198 76.164">
  <g id="Groupe_131" data-name="Groupe 131" transform="translate(357 185.239)">
    <path id="Tracé_98" data-name="Tracé 98" d="M-292,237.686c.1-.727.172-1.457.294-2.18.241-1.43.555-2.849.752-4.284a4.675,4.675,0,0,1,3.749-4.01,5.861,5.861,0,0,1,4.755.372,2.7,2.7,0,0,1,1.544,2.94c-.406,2.39-.839,4.775-1.261,7.163h-1.9l.605-4.274c-1.844,0-3.635-.008-5.425.016a.564.564,0,0,0-.4.363c-.238,1.294-.44,2.6-.652,3.894Zm3.1-5.715c1.793,0,3.583.006,5.373-.012a.544.544,0,0,0,.4-.265,2.123,2.123,0,0,0-1.676-3.1C-287.068,228.174-288.749,229.531-288.9,231.972Z" transform="translate(-54.691 -346.761)" fill="#fff"/>
    <path id="Tracé_99" data-name="Tracé 99" d="M-100.727,238.174c-.032-.039-.055-.1-.1-.115-2.593-1.114-2.982-1.821-2.5-4.56.1-.545.18-1.093.294-1.634.542-2.581,1.9-3.987,4.543-4.313a11.552,11.552,0,0,1,3.979.2c1.844.433,2.551,1.67,2.339,3.548-.1.915-.327,1.817-.449,2.73a4.7,4.7,0,0,1-3.419,3.862c-.242.092-.481.191-.722.287Zm2.35-1.589c2.359.029,3.24-.676,3.709-2.978.158-.775.289-1.558.384-2.343a1.773,1.773,0,0,0-1.257-2.044,5.036,5.036,0,0,0-3.92.314,2.451,2.451,0,0,0-1.3,1.71c-.2,1.01-.418,2.017-.551,3.036a1.923,1.923,0,0,0,1.828,2.3A8.5,8.5,0,0,0-98.377,236.585Z" transform="translate(-213.294 -347.249)" fill="#fff"/>
    <path id="Tracé_100" data-name="Tracé 100" d="M126.179,238.519a17.865,17.865,0,0,1-2.322-1.11,2.2,2.2,0,0,1-1.005-2.269,32.713,32.713,0,0,1,.773-4.117,4.375,4.375,0,0,1,4.077-3.04,59.638,59.638,0,0,1,6.213-.049,4.221,4.221,0,0,1,0,.434c-.11,1.088-.111,1.087-1.23,1.088-1.4,0-2.8-.027-4.2.015a3.025,3.025,0,0,0-3.1,2.906h6.745c-.038,1.476-.038,1.476-1.331,1.476-1.691,0-3.382.022-5.073-.012-.549-.011-.733.191-.786.708-.138,1.366.735,2.281,2.348,2.327,1.4.04,2.8.01,4.2.011h.967l-.41,1.632Z" transform="translate(-403.722 -347.594)" fill="#fff"/>
    <path id="Tracé_101" data-name="Tracé 101" d="M-23.8,237.753l-3.355-1.259a14.656,14.656,0,0,1,1.531-1.142,1.017,1.017,0,0,1,.763.11,6.8,6.8,0,0,0,4.624.558,2.868,2.868,0,0,0,.733-.289,1.317,1.317,0,0,0,.816-1.4c-.106-.663-.635-.876-1.2-.98-.545-.1-1.1-.134-1.652-.2-.341-.042-.683-.078-1.02-.142-1.5-.284-2.411-1.023-2.6-2.1a3.135,3.135,0,0,1,1.814-3.162c2.523-1.264,4.995-.879,7.558.33a7.815,7.815,0,0,1-1.048.967,1.32,1.32,0,0,1-.877.134c-.748-.143-1.472-.423-2.223-.531a4.387,4.387,0,0,0-1.566.1c-.961.219-1.614.9-1.527,1.573.118.911.888,1.026,1.591,1.147s1.418.159,2.122.264c1.567.232,2.6,1.063,2.776,2.21a3.167,3.167,0,0,1-2.009,3.2c-.52.242-1.072.414-1.609.619Z" transform="translate(-277.531 -346.828)" fill="#fff"/>
    <path id="Tracé_102" data-name="Tracé 102" d="M-181,238.661l1.763-10.585c2.2,0,4.337-.1,6.457.039a2.647,2.647,0,0,1,2.593,1.985,3.025,3.025,0,0,1-1.35,3.3,5.7,5.7,0,0,1-3.49,1.08c-.9.007-1.8-.025-2.69.022a.765.765,0,0,0-.577.424c-.25,1.238-.437,2.489-.644,3.735Zm3.032-5.713c1.141,0,2.168.027,3.192-.013a3.933,3.933,0,0,0,1.3-.281,1.844,1.844,0,0,0,1.252-1.978c-.132-.669-.783-1.122-1.779-1.16-.949-.036-1.9-.042-2.848.013a.836.836,0,0,0-.593.511C-177.658,230.96-177.788,231.9-177.968,232.948Z" transform="translate(-148.087 -347.736)" fill="#fff"/>
    <path id="Tracé_103" data-name="Tracé 103" d="M58.647,238.43q.672-4.174,1.345-8.348c.041-.256.079-.514.133-.86H56.536c-.092-1.392-.035-1.454,1.249-1.454h8.446c.02,1.438.02,1.438-1.243,1.438-.686,0-1.373.03-2.057-.009-.53-.03-.722.162-.809.69-.438,2.653-.919,5.3-1.391,7.946a5.2,5.2,0,0,1-.18.6Z" transform="translate(-347.926 -347.505)" fill="#fff"/>
    <path id="Tracé_104" data-name="Tracé 104" d="M-357,235.655q.553-2.907,1.106-5.813c.049-.259.095-.519.14-.779.329-1.919.329-1.919,2.391-1.623-.233,1.337-.462,2.674-.7,4.01-.225,1.273-.464,2.544-.686,3.818-.162.929,0,1.125.972,1.131,1.584.01,3.168,0,4.752,0h.858l-.269,1.632H-357Z" transform="translate(0 -347.11)" fill="#fff"/>
    <path id="Tracé_105" data-name="Tracé 105" d="M-277.472-130.412a34.792,34.792,0,0,1-16.376-3.4,21.378,21.378,0,0,1-9.3-8.478c-2.94-5.195-3.147-10.682-1.4-16.323s5.261-10.078,9.515-13.98a48.376,48.376,0,0,1,21.39-11.2,42.9,42.9,0,0,1,22.178.03,23.9,23.9,0,0,1,13.9,9.5,18.057,18.057,0,0,1,3.091,11.186,25.89,25.89,0,0,1-6.021,15.287,42.026,42.026,0,0,1-12.7,10.7,50.486,50.486,0,0,1-17.873,6.154C-273.194-130.648-275.339-130.58-277.472-130.412Zm15.108-52.89a45.755,45.755,0,0,0-13.322,2.076,45.406,45.406,0,0,0-19.591,11.53,30.414,30.414,0,0,0-7.363,11.244c-2.987,8.623-.135,16.784,7.544,21.711a27.632,27.632,0,0,0,11.176,4.011,43.755,43.755,0,0,0,19.277-1.578c7.339-2.266,14.021-5.713,19.52-11.207a31.927,31.927,0,0,0,6.875-9.616,19.3,19.3,0,0,0,1.427-12.829c-1.422-5.622-5.164-9.361-10.106-11.985C-251.7-182.48-256.917-183.251-262.363-183.3Z" transform="translate(-43.199)" fill="#fff"/>
    <path id="Tracé_106" data-name="Tracé 106" d="M-253.7-21.418c1.258-.5,2.526-.972,3.773-1.5,4.255-1.791,8.544-3.509,12.731-5.449a21.3,21.3,0,0,0,4.243-3,4.2,4.2,0,0,0,1.588-2.975l34.129-.631.043.268C-216.229-31.11-234.887-25.963-253.7-21.418Z" transform="translate(-86.913 -126.435)" fill="#fff"/>
    <path id="Tracé_107" data-name="Tracé 107" d="M-185.32-75.056c1.335,0,2.671,0,4.006,0q12.674-.034,25.347-.062a8.354,8.354,0,0,1,2.035.2,1.311,1.311,0,0,1,1.054,1.866,23.576,23.576,0,0,1-2.031,3.262c-.105.155-.484.168-.737.171q-9.068.111-18.136.195a1.531,1.531,0,0,1-.885-.2,34.568,34.568,0,0,0-8.117-4.225c-.852-.345-1.71-.673-2.566-1.008Z" transform="translate(-144.428 -92.656)" fill="#fff"/>
    <path id="Tracé_108" data-name="Tracé 108" d="M-218.869,10.154l30.367-7.6c-1.167,1.465-2.184,2.734-3.192,4.011-.261.331-.5.681-.743,1.025a4.424,4.424,0,0,1-3.713,2.04c-7.475.193-14.947.464-22.421.705a2.065,2.065,0,0,1-.276-.027Z" transform="translate(-116.224 -158.007)" fill="#fff"/>
  </g>
</svg>
