<svg xmlns="http://www.w3.org/2000/svg" width="86.229" height="26.542" viewBox="0 0 86.229 26.542">
  <g id="Groupe_129" data-name="Groupe 129" transform="translate(0 0)">
    <path id="Tracé_93" data-name="Tracé 93" d="M-459.319,398.3h-6.507l-.865-3.809c-2.849,0-5.667-.012-8.484.023a.965.965,0,0,0-.647.511c-.295.6-.5,1.243-.745,1.87-.558,1.445-.558,1.445-2.143,1.445h-5.721c.143-.37.239-.655.359-.928,3.253-7.373,6.54-14.731,9.744-22.126a3.95,3.95,0,0,1,4.1-2.657c1.41.034,2.825.062,4.232-.015.807-.044,1.1.238,1.266,1q2.4,11.112,4.861,22.21C-459.694,396.629-459.511,397.437-459.319,398.3Zm-8.531-9.175-1.982-9.176-.192.011-3.568,9.165Z" transform="translate(545.549 -372.164)" fill="#fff"/>
    <path id="Tracé_94" data-name="Tracé 94" d="M-538.062,377.558a12.856,12.856,0,0,0-6.26-1.18,7.532,7.532,0,0,0-2.865.911,1.374,1.374,0,0,0-.153,2.411,16.012,16.012,0,0,0,2.4,1.557c1.326.769,2.764,1.374,4,2.263,4.153,2.989,3.158,7.875.733,10.426a11.571,11.571,0,0,1-6.8,3.262,22.772,22.772,0,0,1-11.147-1.069c.336-1.938.66-3.814,1-5.786a14.845,14.845,0,0,0,7.6,1.721,7.586,7.586,0,0,0,3.161-.908,1.727,1.727,0,0,0,.176-2.986,16.308,16.308,0,0,0-2.431-1.515c-1.242-.721-2.563-1.324-3.737-2.14-4.367-3.035-3.3-8.293.023-10.871,3.2-2.487,6.949-2.958,10.845-2.6a33.051,33.051,0,0,1,3.67.7c.547.113.768.381.63,1.023C-537.543,374.326-537.774,375.9-538.062,377.558Z" transform="translate(599.698 -370.945)" fill="#fff"/>
    <path id="Tracé_95" data-name="Tracé 95" d="M-677.541,389.75c1.871-4.77,3.661-9.352,5.468-13.928.456-1.155.669-2.709,1.53-3.313.824-.578,2.347-.164,3.562-.174,1.173-.009,2.345,0,3.636,0-.143.411-.218.678-.327.93q-5.157,11.98-10.306,23.964a1.089,1.089,0,0,1-1.191.811c-1.955-.041-3.911-.015-5.867.005-.463,0-.735-.066-.891-.605-1.953-6.754-3.94-13.5-5.914-20.246a4.118,4.118,0,0,1-.048-.6C-683.211,380.109-679.112,383.817-677.541,389.75Z" transform="translate(695.004 -371.868)" fill="#fff"/>
    <path id="Tracé_96" data-name="Tracé 96" d="M-601.038,398.37l4.369-25.662h7.022l-4.372,25.662Z" transform="translate(631.206 -372.24)" fill="#fff"/>
    <path id="Tracé_97" data-name="Tracé 97" d="M-714.646,371.859a5.663,5.663,0,0,1,.842-.127c3.268-.009,6.536-.022,9.8,0,2.2.015,3.07.745,3.521,2.875.656,3.095,1.294,6.193,1.936,9.29a1.185,1.185,0,0,1-.021.506c-3.289-6.819-9.082-10.33-16.134-12.188Z" transform="translate(714.699 -371.515)" fill="#fff"/>
  </g>
</svg>
